<?xml version="1.0" encoding="UTF-8"?>
<svg version="1.1" xmlns="http://www.w3.org/2000/svg" width="1536" height="1024">
<path d="M0 0 C506.88 0 1013.76 0 1536 0 C1536 337.92 1536 675.84 1536 1024 C1029.12 1024 522.24 1024 0 1024 C0 686.08 0 348.16 0 0 Z " fill="#102014" transform="translate(0,0)"/>
<path d="M0 0 C0.73081787 0.14961182 1.46163574 0.29922363 2.21459961 0.45336914 C3.91015625 0.90234375 3.91015625 0.90234375 4.91015625 1.90234375 C6.93467049 24.76958111 2.36382396 45.226855 -7.08984375 65.90234375 C-7.404375 66.59730957 -7.71890625 67.29227539 -8.04296875 68.00830078 C-17.29009101 87.98659088 -33.72578604 104.28003651 -54.08984375 112.90234375 C-57.0788782 113.81527518 -60.08979487 114.47421688 -63.15234375 115.08984375 C-63.91611328 115.25419922 -64.67988281 115.41855469 -65.46679688 115.58789062 C-69.99034874 116.5436796 -74.50630499 117.2997271 -79.08984375 117.90234375 C-78.47818359 118.06379883 -77.86652344 118.22525391 -77.23632812 118.39160156 C-70.92147399 120.1575382 -65.34494378 122.53112425 -59.58984375 125.65234375 C-58.34666382 126.31931274 -58.34666382 126.31931274 -57.07836914 126.99975586 C-34.65481605 139.19973753 -15.81357102 158.04319693 -8.15625 182.9375 C-2.21739868 205.41420522 -3.84338141 230.93838618 -15.46484375 251.33984375 C-20.81150402 260.30817301 -27.65543847 267.63684964 -35.08984375 274.90234375 C-35.85941406 275.6809375 -36.62898438 276.45953125 -37.421875 277.26171875 C-52.51484631 291.69094562 -72.65164044 299.43640134 -92.08984375 305.90234375 C-91.53296875 306.31484375 -90.97609375 306.72734375 -90.40234375 307.15234375 C-72.83960449 320.44306535 -60.19049219 338.49937644 -51.83984375 358.77734375 C-51.51016602 359.5672168 -51.18048828 360.35708984 -50.84082031 361.17089844 C-46.03392269 373.31852407 -44.57524734 385.27873944 -44.71484375 398.27734375 C-44.72132431 399.29316025 -44.72132431 399.29316025 -44.72793579 400.32949829 C-44.8397839 415.29442165 -46.40077464 428.30842911 -53.08984375 441.90234375 C-53.41259277 442.56411621 -53.7353418 443.22588867 -54.06787109 443.90771484 C-58.56212054 453.03427642 -63.28413592 461.26799685 -70.08984375 468.90234375 C-70.72535156 469.66804688 -71.36085938 470.43375 -72.015625 471.22265625 C-89.8077653 492.25945541 -118.11524087 505.43847561 -145.3828125 507.7421875 C-176.56491081 509.58701583 -207.65355251 500.01714946 -231.296875 479.10546875 C-233.37430445 477.2289273 -235.41735256 475.32041401 -237.4453125 473.390625 C-239.50404654 471.45352961 -241.57155435 469.66190449 -243.77734375 467.90234375 C-248.55391881 463.85439878 -252.25387881 458.81677021 -256.08984375 453.90234375 C-256.83492187 452.97292969 -257.58 452.04351563 -258.34765625 451.0859375 C-263.74492266 444.17480368 -268.06602687 436.96751812 -272.2421875 429.2734375 C-274.02326782 425.90847747 -274.02326782 425.90847747 -276.08984375 422.90234375 C-276.49332031 423.51078125 -276.89679688 424.11921875 -277.3125 424.74609375 C-300.30547873 457.94190168 -337.37228644 485.51783213 -377.48168945 492.85107422 C-379.68144109 493.22513603 -381.88361902 493.56891455 -384.08984375 493.90234375 C-385.81074219 494.18851563 -385.81074219 494.18851563 -387.56640625 494.48046875 C-412.50164056 497.46606222 -437.49555885 491.93983544 -457.8046875 476.890625 C-460.27519378 474.94022531 -462.68480769 472.93251429 -465.08984375 470.90234375 C-465.69183594 470.44601562 -466.29382813 469.9896875 -466.9140625 469.51953125 C-484.51318425 455.81765092 -493.59729625 431.85911254 -496.58984375 410.4921875 C-500.09342915 381.37171802 -491.06605462 352.54731785 -474.08984375 328.90234375 C-471.24625375 325.40111567 -468.21854554 322.14757075 -465.08984375 318.90234375 C-463.83165357 317.47200682 -462.58112582 316.03487838 -461.33984375 314.58984375 C-458.72675355 311.54783723 -455.94235705 308.72089855 -453.08984375 305.90234375 C-453.70802979 305.64654541 -454.32621582 305.39074707 -454.96313477 305.12719727 C-471.16164925 298.37869318 -486.67130057 291.44088088 -500.08984375 279.90234375 C-501.02183594 279.11472656 -501.95382812 278.32710938 -502.9140625 277.515625 C-520.7016176 262.10645439 -533.04811345 242.2715594 -537.08984375 218.90234375 C-538.91750047 190.07074381 -532.98297717 166.18135802 -513.68359375 144.15625 C-494.07311637 123.77004172 -466.3392004 111.2059571 -438.08161926 110.54750061 C-414.98859807 110.11062814 -394.47817191 113.91350837 -373.08984375 122.90234375 C-373.05020508 122.19851563 -373.01056641 121.4946875 -372.96972656 120.76953125 C-372.16262135 107.10671149 -371.32525269 93.97879861 -367.08984375 80.90234375 C-366.56777344 79.27232422 -366.56777344 79.27232422 -366.03515625 77.609375 C-360.81083507 62.81914159 -352.69469732 50.33834695 -342.08984375 38.90234375 C-340.92775391 37.63583984 -340.92775391 37.63583984 -339.7421875 36.34375 C-331.71404262 27.9474715 -322.38459694 22.15179297 -312.08984375 16.90234375 C-311.26226563 16.45890625 -310.4346875 16.01546875 -309.58203125 15.55859375 C-289.00795937 5.24009899 -263.32462991 5.29412657 -241.6574707 12.02124023 C-237.5492212 13.43102177 -233.63375847 15.16074781 -229.71484375 17.02734375 C-228.89193848 17.41913818 -228.0690332 17.81093262 -227.22119141 18.21459961 C-220.13517444 21.69370753 -214.13026627 25.79334516 -208.08984375 30.90234375 C-206.93162109 31.81886719 -206.93162109 31.81886719 -205.75 32.75390625 C-185.21220392 49.71834238 -174.306705 74.97526577 -171.08984375 100.90234375 C-170.4884386 107.55939289 -170.23336332 114.2215076 -170.08984375 120.90234375 C-168.86652344 120.50402344 -167.64320313 120.10570312 -166.3828125 119.6953125 C-154.69325208 115.98652954 -143.24844898 113.47030868 -131.08984375 111.90234375 C-133.39984375 111.57234375 -135.70984375 111.24234375 -138.08984375 110.90234375 C-133.44548933 91.66144687 -114.39857723 74.27567016 -99.08984375 62.90234375 C-98.46303711 62.42764648 -97.83623047 61.95294922 -97.19042969 61.46386719 C-85.65070747 52.74532765 -73.60902042 45.13192184 -61.08984375 37.90234375 C-67.26210464 40.24802321 -73.12147211 42.7868132 -78.83984375 46.08984375 C-79.51885742 46.47785156 -80.19787109 46.86585938 -80.89746094 47.265625 C-92.16652958 53.76801919 -102.82854919 60.89010005 -113.08984375 68.90234375 C-114.40855469 69.91167969 -114.40855469 69.91167969 -115.75390625 70.94140625 C-126.36212977 79.29655575 -136.22280038 89.04812159 -144.79296875 99.484375 C-146.08984375 100.90234375 -146.08984375 100.90234375 -149.08984375 102.90234375 C-154.41656136 94.57654984 -155.36182769 85.84792998 -155.40234375 76.15234375 C-155.4077417 75.36069824 -155.41313965 74.56905273 -155.41870117 73.75341797 C-155.22398137 57.55611698 -146.6088258 41.90316939 -135.65234375 30.3359375 C-98.44905579 -4.9958436 -48.10511005 -9.85262515 0 0 Z " fill="#B4F13B" transform="translate(1039.08984375,211.09765625)"/>
<path d="M0 0 C-2.70986956 5.09866452 -5.65401164 9.19881408 -9.625 13.375 C-10.15641602 13.93807861 -10.68783203 14.50115723 -11.23535156 15.08129883 C-29.02236683 33.7385047 -49.77176443 43.94069671 -74 52 C-73.443125 52.4125 -72.88625 52.825 -72.3125 53.25 C-54.74976074 66.5407216 -42.10064844 84.59703269 -33.75 104.875 C-33.2554834 106.05980957 -33.2554834 106.05980957 -32.75097656 107.26855469 C-27.94407894 119.41618032 -26.48540359 131.37639569 -26.625 144.375 C-26.62932037 145.052211 -26.63364075 145.729422 -26.63809204 146.42715454 C-26.74994015 161.3920779 -28.31093089 174.40608536 -35 188 C-35.32274902 188.66177246 -35.64549805 189.32354492 -35.97802734 190.00537109 C-40.47227679 199.13193267 -45.19429217 207.3656531 -52 215 C-52.63550781 215.76570312 -53.27101563 216.53140625 -53.92578125 217.3203125 C-71.71792155 238.35711166 -100.02539712 251.53613186 -127.29296875 253.83984375 C-158.47506706 255.68467208 -189.56370876 246.11480571 -213.20703125 225.203125 C-215.2844607 223.32658355 -217.32750881 221.41807026 -219.35546875 219.48828125 C-221.41420279 217.55118586 -223.4817106 215.75956074 -225.6875 214 C-230.46407506 209.95205503 -234.16403506 204.91442646 -238 200 C-239.11761719 198.60587891 -239.11761719 198.60587891 -240.2578125 197.18359375 C-246.43928846 189.26828917 -251.2870196 180.84804777 -256 172 C-256.43441406 171.2678125 -256.86882813 170.535625 -257.31640625 169.78125 C-258.25621369 167.33238034 -258.03196979 166.41979123 -257 164 C-255.54932234 161.92760334 -254.08074027 159.96741727 -252.5 158 C-251.5771623 156.83148882 -250.65530616 155.66220186 -249.734375 154.4921875 C-249.27095703 153.9053418 -248.80753906 153.31849609 -248.33007812 152.71386719 C-246.40397502 150.23199425 -244.5869614 147.673266 -242.75 145.125 C-237.08371067 137.54996065 -230.57184056 130.78873299 -224 124 C-223.43216797 123.41025391 -222.86433594 122.82050781 -222.27929688 122.21289062 C-220.67332956 120.55057358 -219.05816602 118.89797918 -217.4375 117.25 C-216.96143311 116.76080078 -216.48536621 116.27160156 -215.99487305 115.76757812 C-213.93221942 113.70015917 -211.98276616 111.98966502 -209.47265625 110.484375 C-206.49852882 108.69895885 -204.4328395 106.46621688 -202 104 C-200.02706594 102.44421556 -198.02605497 100.92344593 -196 99.4375 C-193.02813428 97.25029781 -190.09231297 95.07644668 -187.25 92.72265625 C-185 91 -185 91 -183 91 C-183 90.34 -183 89.68 -183 89 C-181.865625 88.46375 -180.73125 87.9275 -179.5625 87.375 C-176.41689441 85.81323442 -173.56523869 84.0727615 -170.6875 82.0625 C-166.64615473 79.30390255 -162.52063631 77.30694869 -158.04296875 75.35546875 C-154.52130045 73.78676669 -151.07242393 72.0993914 -147.625 70.375 C-145.91183594 69.52035156 -145.91183594 69.52035156 -144.1640625 68.6484375 C-140.52278862 66.75137876 -137.05350237 64.69309367 -133.625 62.4375 C-130.49341568 60.72258478 -127.44117829 59.9590169 -124 59 C-122.53473156 58.43431256 -121.07695822 57.84902521 -119.625 57.25 C-114.06993794 54.9626215 -108.40606527 53.01981032 -102.71337891 51.10644531 C-98.48318723 49.69297473 -98.48318723 49.69297473 -95 47 C-92.88392275 46.23574899 -90.74009597 45.54763995 -88.5859375 44.8984375 C-87.26044951 44.49075798 -85.93518088 44.08236471 -84.61010742 43.67333984 C-83.91726654 43.46134949 -83.22442566 43.24935913 -82.5105896 43.03094482 C-71.42977157 39.62747946 -60.77460833 36.05842459 -50.60546875 30.3984375 C-48 29 -48 29 -46 29 C-45.67 28.01 -45.34 27.02 -45 26 C-44.34 26.33 -43.68 26.66 -43 27 C-43 26.34 -43 25.68 -43 25 C-40.35261084 23.5393715 -39.10551666 23 -36 23 C-35.67 22.01 -35.34 21.02 -35 20 C-34.0925 19.87625 -33.185 19.7525 -32.25 19.625 C-29.41029677 19.07890323 -27.47409409 18.42736197 -25 17 C-25 16.34 -25 15.68 -25 15 C-24.21625 14.9175 -23.4325 14.835 -22.625 14.75 C-21.75875 14.5025 -20.8925 14.255 -20 14 C-19.29605388 12.68596724 -18.63654342 11.3479743 -18 10 C-12.98579545 5 -12.98579545 5 -10 5 C-9.9175 4.38125 -9.835 3.7625 -9.75 3.125 C-9 1 -9 1 -7.25 -0.3125 C-4.48679971 -1.1568112 -2.75194864 -0.76443018 0 0 Z " fill="#5DC925" transform="translate(1021,465)"/>
<path d="M0 0 C9.27612239 2.7089561 18.45617033 5.6531714 27.5 9.0625 C31.25912833 10.45197723 34.97298737 11.52600624 38.875 12.4375 C44.28109179 13.72829984 49.30189926 15.55780914 54.45703125 17.62109375 C57.68558146 18.87762983 60.92745762 20.02041767 64.20629883 21.13476562 C73.12344068 24.17841913 81.57573677 27.78998185 90 32 C90.69125977 32.33902344 91.38251953 32.67804687 92.09472656 33.02734375 C102.3420229 38.07928398 111.17175441 43.74406728 120 51 C121.49660156 52.15822266 121.49660156 52.15822266 123.0234375 53.33984375 C128.24730888 57.38578335 128.24730888 57.38578335 130 59 C130 59.66 130 60.32 130 61 C130.66 61 131.32 61 132 61 C133.48046875 62.50390625 133.48046875 62.50390625 135.1875 64.5625 C137.45489263 67.24511474 139.73744384 69.73910673 142.3125 72.125 C149.72300552 79.4016815 155.9035383 88.996251 161 98 C161 98.99 161 99.98 161 101 C161.66 101 162.32 101 163 101 C164.33819498 103.6226232 165.6707151 106.24786599 167 108.875 C167.3815625 109.62136719 167.763125 110.36773438 168.15625 111.13671875 C168.69765625 112.20986328 168.69765625 112.20986328 169.25 113.3046875 C169.58515625 113.96452637 169.9203125 114.62436523 170.265625 115.30419922 C171 117 171 117 171 119 C172.32 119.33 173.64 119.66 175 120 C172.60795717 124.31537457 169.71322713 127.91384061 166.5 131.625 C165.96810059 132.23964111 165.43620117 132.85428223 164.88818359 133.48754883 C152.0076204 148.22702451 137.65691108 159.82246654 121 170 C120.24702637 170.47276367 119.49405273 170.94552734 118.71826172 171.43261719 C112.87687785 175.04298848 106.97890656 178.02549095 100.625 180.625 C99.21238892 181.20411133 99.21238892 181.20411133 97.77124023 181.79492188 C88.40101207 185.4819795 78.92808608 187.49955728 69 189 C67.85273437 189.19078125 66.70546875 189.3815625 65.5234375 189.578125 C40.58820319 192.56371847 15.5942849 187.03749169 -4.71484375 171.98828125 C-7.18535003 170.03788156 -9.59496394 168.03017054 -12 166 C-12.90298828 165.31550781 -12.90298828 165.31550781 -13.82421875 164.6171875 C-31.4233405 150.91530717 -40.5074525 126.95676879 -43.5 105.58984375 C-47.0035854 76.46937427 -37.97621087 47.6449741 -21 24 C-18.15641 20.49877192 -15.12870179 17.245227 -12 14 C-10.74180982 12.56966307 -9.49128207 11.13253463 -8.25 9.6875 C-6.25823146 7.39394835 -4.23158767 5.18905654 -2.0625 3.0625 C-1.381875 2.381875 -0.70125 1.70125 0 1 C0 0.67 0 0.34 0 0 Z " fill="#A4EB31" transform="translate(586,516)"/>
<path d="M0 0 C1.27166016 0.00684814 2.54332031 0.01369629 3.85351562 0.02075195 C13.41331196 0.18378629 21.6743373 1.2274757 30.6875 4.4375 C32.41613281 5.01564453 32.41613281 5.01564453 34.1796875 5.60546875 C56.04214637 13.40627682 75.4740722 30.57664733 85.76171875 51.5 C89.19101366 58.89283235 92.01645851 66.44220918 93.6875 74.4375 C93.96013672 75.7059375 93.96013672 75.7059375 94.23828125 77 C96.18994016 91.93443339 95.5601122 107.16998193 90.6875 121.4375 C90.31367187 122.571875 89.93984375 123.70625 89.5546875 124.875 C85.49380234 136.27775039 79.40138012 146.16045475 71.6875 155.4375 C70.924375 156.40171875 70.16125 157.3659375 69.375 158.359375 C66.66356763 161.59862472 63.63574481 164.21847167 60.3125 166.8125 C59.41035767 167.51922852 59.41035767 167.51922852 58.48999023 168.24023438 C36.53820623 184.93843054 10.93712631 190.02382772 -16.125 186.8125 C-33.348261 183.62630812 -49.3998029 175.08656925 -62.3125 163.4375 C-63.09367188 162.73882813 -63.87484375 162.04015625 -64.6796875 161.3203125 C-80.95380017 145.94718877 -92.78165065 122.5378627 -93.55078125 99.98046875 C-93.90415765 79.97526271 -91.22884253 64.83551888 -81.3125 47.4375 C-80.74402344 46.42816406 -80.17554688 45.41882813 -79.58984375 44.37890625 C-66.69143875 22.88156458 -45.31417474 7.95434236 -21.23046875 1.79296875 C-14.1243454 0.21757387 -7.25921909 -0.06036471 0 0 Z " fill="#112014" transform="translate(767.3125,376.5625)"/>
<path d="M0 0 C0.73081787 0.14961182 1.46163574 0.29922363 2.21459961 0.45336914 C3.91015625 0.90234375 3.91015625 0.90234375 4.91015625 1.90234375 C6.93467049 24.76958111 2.36382396 45.226855 -7.08984375 65.90234375 C-7.404375 66.59730957 -7.71890625 67.29227539 -8.04296875 68.00830078 C-17.30401 88.01666267 -33.72610618 104.2270944 -54.08984375 112.90234375 C-57.01617298 113.81607916 -59.96296291 114.47546917 -62.96484375 115.08984375 C-63.70347656 115.25419922 -64.44210937 115.41855469 -65.203125 115.58789062 C-74.46457387 117.57019381 -82.21823247 118.25899821 -91.46484375 116.02734375 C-104.54974153 113.16945748 -117.7440555 113.07129622 -131.08984375 112.90234375 C-131.08984375 112.57234375 -131.08984375 112.24234375 -131.08984375 111.90234375 C-134.55484375 111.40734375 -134.55484375 111.40734375 -138.08984375 110.90234375 C-133.44548933 91.66144687 -114.39857723 74.27567016 -99.08984375 62.90234375 C-98.14963379 62.19029785 -98.14963379 62.19029785 -97.19042969 61.46386719 C-85.65070747 52.74532765 -73.60902042 45.13192184 -61.08984375 37.90234375 C-67.26210464 40.24802321 -73.12147211 42.7868132 -78.83984375 46.08984375 C-79.51885742 46.47785156 -80.19787109 46.86585938 -80.89746094 47.265625 C-92.16652958 53.76801919 -102.82854919 60.89010005 -113.08984375 68.90234375 C-113.96898437 69.57523437 -114.848125 70.248125 -115.75390625 70.94140625 C-126.36212977 79.29655575 -136.22280038 89.04812159 -144.79296875 99.484375 C-146.08984375 100.90234375 -146.08984375 100.90234375 -149.08984375 102.90234375 C-154.41656136 94.57654984 -155.36182769 85.84792998 -155.40234375 76.15234375 C-155.4077417 75.36069824 -155.41313965 74.56905273 -155.41870117 73.75341797 C-155.22398137 57.55611698 -146.6088258 41.90316939 -135.65234375 30.3359375 C-98.44905579 -4.9958436 -48.10511005 -9.85262515 0 0 Z " fill="#73CF24" transform="translate(1039.08984375,211.09765625)"/>
<path d="M0 0 C0.73081787 0.14961182 1.46163574 0.29922363 2.21459961 0.45336914 C3.91015625 0.90234375 3.91015625 0.90234375 4.91015625 1.90234375 C6.21477615 16.63825043 5.09775987 31.70422782 0.91015625 45.90234375 C-0.07984375 46.39734375 -0.07984375 46.39734375 -1.08984375 46.90234375 C-0.60633713 40.92213029 0.20802503 35.14128585 1.43359375 29.26953125 C2.80593994 22.45279527 3.03823506 15.84706143 2.91015625 8.90234375 C1.60304688 9.55589844 1.60304688 9.55589844 0.26953125 10.22265625 C-5.64192708 13.17838542 -11.55338542 16.13411458 -17.46484375 19.08984375 C-18.43035156 19.57324219 -19.39585937 20.05664062 -20.390625 20.5546875 C-22.09425077 21.40526766 -23.79974158 22.25213186 -25.5078125 23.09375 C-28.49652161 24.56905085 -31.31213593 26.05053853 -34.08984375 27.90234375 C-35.42428474 27.57347276 -36.75754946 27.23980606 -38.08984375 26.90234375 C-40.18813194 27.44961258 -40.18813194 27.44961258 -42.29296875 28.4921875 C-43.10048584 28.86037598 -43.90800293 29.22856445 -44.73999023 29.60791016 C-45.59794189 30.01444824 -46.45589355 30.42098633 -47.33984375 30.83984375 C-48.22937744 31.25153809 -49.11891113 31.66323242 -50.03540039 32.08740234 C-58.13645792 35.86156936 -66.15199689 39.79685753 -74.08984375 43.90234375 C-75.20746094 44.47597656 -76.32507813 45.04960937 -77.4765625 45.640625 C-90.14373736 52.28745378 -101.81829705 60.10127304 -113.08984375 68.90234375 C-113.96898437 69.57523437 -114.848125 70.248125 -115.75390625 70.94140625 C-126.36212977 79.29655575 -136.22280038 89.04812159 -144.79296875 99.484375 C-146.08984375 100.90234375 -146.08984375 100.90234375 -149.08984375 102.90234375 C-154.41656136 94.57654984 -155.36182769 85.84792998 -155.40234375 76.15234375 C-155.4077417 75.36069824 -155.41313965 74.56905273 -155.41870117 73.75341797 C-155.22398137 57.55611698 -146.6088258 41.90316939 -135.65234375 30.3359375 C-98.44905579 -4.9958436 -48.10511005 -9.85262515 0 0 Z " fill="#B3EA41" transform="translate(1039.08984375,211.09765625)"/>
<path d="M0 0 C-2.71003035 5.09896706 -5.65460031 9.19798856 -9.625 13.375 C-10.41668579 14.21635498 -10.41668579 14.21635498 -11.22436523 15.07470703 C-18.98817816 23.23669415 -27.01527516 30.60894197 -37 36 C-37.66 36 -38.32 36 -39 36 C-38.67 34.68 -38.34 33.36 -38 32 C-35.525 31.505 -35.525 31.505 -33 31 C-33.66 29.02 -34.32 27.04 -35 25 C-33.35 25 -31.7 25 -30 25 C-29.67 24.34 -29.34 23.68 -29 23 C-29.99 22.67 -30.98 22.34 -32 22 C-32.33 22.66 -32.66 23.32 -33 24 C-33.66 24 -34.32 24 -35 24 C-35.66 24.66 -36.32 25.32 -37 26 C-37.99 25.34 -38.98 24.68 -40 24 C-39.360625 23.896875 -38.72125 23.79375 -38.0625 23.6875 C-37.0415625 23.3471875 -37.0415625 23.3471875 -36 23 C-35.67 22.01 -35.34 21.02 -35 20 C-34.0925 19.87625 -33.185 19.7525 -32.25 19.625 C-29.41029677 19.07890323 -27.47409409 18.42736197 -25 17 C-25 16.34 -25 15.68 -25 15 C-24.21625 14.9175 -23.4325 14.835 -22.625 14.75 C-21.75875 14.5025 -20.8925 14.255 -20 14 C-19.29605388 12.68596724 -18.63654342 11.3479743 -18 10 C-12.98579545 5 -12.98579545 5 -10 5 C-9.9175 4.38125 -9.835 3.7625 -9.75 3.125 C-9 1 -9 1 -7.25 -0.3125 C-4.48679971 -1.1568112 -2.75194864 -0.76443018 0 0 Z " fill="#76D227" transform="translate(1021,465)"/>
<path d="M0 0 C7.41964444 5.90066212 13.28921462 12.7636222 18.98046875 20.28515625 C19.49714111 20.96690918 20.01381348 21.64866211 20.54614258 22.35107422 C23.04103991 25.72997065 25.33986816 28.86945673 26.48046875 32.97265625 C25.60546875 35.28515625 25.60546875 35.28515625 24.48046875 36.97265625 C23.49046875 36.64265625 22.50046875 36.31265625 21.48046875 35.97265625 C20.29296875 33.41015625 20.29296875 33.41015625 19.48046875 30.97265625 C17.99546875 31.46765625 17.99546875 31.46765625 16.48046875 31.97265625 C16.35671875 31.18890625 16.23296875 30.40515625 16.10546875 29.59765625 C15.68928882 26.83207803 15.68928882 26.83207803 13.48046875 24.97265625 C13.07999431 22.64990448 12.74075835 20.31526268 12.48046875 17.97265625 C11.49046875 17.64265625 10.50046875 17.31265625 9.48046875 16.97265625 C6.79296875 14.59765625 6.79296875 14.59765625 4.48046875 11.97265625 C4.48046875 10.98265625 4.48046875 9.99265625 4.48046875 8.97265625 C3.16046875 9.96265625 1.84046875 10.95265625 0.48046875 11.97265625 C0.48046875 10.98265625 0.48046875 9.99265625 0.48046875 8.97265625 C-0.42703125 8.74578125 -1.33453125 8.51890625 -2.26953125 8.28515625 C-6.05691715 6.75563502 -7.36541606 5.40328414 -9.51953125 1.97265625 C-10.26953125 -0.83984375 -10.26953125 -0.83984375 -10.51953125 -3.02734375 C-5.84353504 -4.75725266 -3.80647069 -2.7260043 0 0 Z M19.48046875 26.97265625 C20.48046875 29.97265625 20.48046875 29.97265625 20.48046875 29.97265625 Z " fill="#49B720" transform="translate(951.51953125,520.02734375)"/>
<path d="M0 0 C0.66 0.33 1.32 0.66 2 1 C0.60416667 2.39583333 -0.79166667 3.79166667 -2.1875 5.1875 C-3.0125 6.01378906 -3.8375 6.84007812 -4.6875 7.69140625 C-6.34453488 9.34564209 -8.01250189 10.98895534 -9.6875 12.625 C-12.14540558 15.14933546 -14.36322709 17.80293098 -16.5703125 20.546875 C-18 22 -18 22 -21 23 C-19.48623919 19.43235715 -17.39486871 17.16293713 -14.6484375 14.453125 C-13.79765625 13.60878906 -12.946875 12.76445313 -12.0703125 11.89453125 C-11.18085937 11.02183594 -10.29140625 10.14914062 -9.375 9.25 C-8.4778125 8.36183594 -7.580625 7.47367188 -6.65625 6.55859375 C-4.44192996 4.36783031 -2.22307565 2.18187237 0 0 Z M-22 23 C-22 27.02339699 -23.41144293 27.93460347 -26 31 C-27.09104106 32.43165875 -28.17408075 33.86944243 -29.25 35.3125 C-29.77078125 36.00988281 -30.2915625 36.70726562 -30.828125 37.42578125 C-31.21484375 37.94527344 -31.6015625 38.46476563 -32 39 C-31.34 39.99 -30.68 40.98 -30 42 C-31.56693926 45.84612364 -34.05564903 48.12412231 -37 51 C-38.98824599 52.9460551 -40.38412674 54.67124147 -42 57 C-41.95367452 60.29409604 -41.95367452 60.29409604 -41 63 C-40.34 63 -39.68 63 -39 63 C-38.67 64.98 -38.34 66.96 -38 69 C-40.62901914 66.64161518 -42.14649342 64.19877023 -43.75 61.0625 C-44.19859375 60.20785156 -44.6471875 59.35320313 -45.109375 58.47265625 C-46.14479212 55.59801134 -46.23778665 54.76404053 -45 52 C-43.54938888 49.9276984 -42.08046863 47.96750418 -40.5 46 C-39.5903285 44.84569573 -38.68149327 43.690732 -37.7734375 42.53515625 C-37.31163086 41.95008301 -36.84982422 41.36500977 -36.37402344 40.76220703 C-33.50775904 37.08617711 -30.76928866 33.31358993 -28.0078125 29.55859375 C-26.14112779 27.17984184 -24.18662461 25.08366695 -22 23 Z " fill="#81D62A" transform="translate(809,577)"/>
<path d="M0 0 C0.33 1.98 0.66 3.96 1 6 C0.21625 6.2475 -0.5675 6.495 -1.375 6.75 C-4.40937999 8.19494285 -4.67029725 9.05565819 -6 12 C-9.00419641 13.0013988 -11.87709365 13.51421457 -15 14 C-15.103125 13.21625 -15.20625 12.4325 -15.3125 11.625 C-15.77595022 8.66954819 -15.77595022 8.66954819 -19 7 C-19 6.01 -19 5.02 -19 4 C-17.08396843 3.35228492 -15.16714887 2.70690052 -13.25 2.0625 C-12.18265625 1.70285156 -11.1153125 1.34320312 -10.015625 0.97265625 C-3.44239631 -1.14746544 -3.44239631 -1.14746544 0 0 Z " fill="#4CBB20" transform="translate(938,512)"/>
<path d="M0 0 C0.495 0.99 0.495 0.99 1 2 C0.525625 2.433125 0.05125 2.86625 -0.4375 3.3125 C-2.23686957 5.02309613 -2.23686957 5.02309613 -3 8 C-13.12327118 15.01284931 -23.97558534 18.05866611 -36 20 C-37.59521484 20.26103516 -37.59521484 20.26103516 -39.22265625 20.52734375 C-43.62917779 21.10492905 -46.06747983 21.27486593 -50 19 C-46.39006828 17.86519473 -43.0157673 17.89984233 -39.25 17.9375 C-37.49429688 17.95103516 -37.49429688 17.95103516 -35.703125 17.96484375 C-34.81109375 17.97644531 -33.9190625 17.98804688 -33 18 C-32.67 17.34 -32.34 16.68 -32 16 C-31.01 16.33 -30.02 16.66 -29 17 C-28.67 16.01 -28.34 15.02 -28 14 C-26.2578125 13.26953125 -26.2578125 13.26953125 -24.125 12.8125 C-23.42632813 12.65394531 -22.72765625 12.49539063 -22.0078125 12.33203125 C-20 12 -20 12 -17 12 C-15.28389226 10.79270302 -15.28389226 10.79270302 -13.625 9.1875 C-10.8880306 6.73802739 -8.22742076 4.78357463 -5 3 C-4.071875 2.443125 -3.14375 1.88625 -2.1875 1.3125 C-1.465625 0.879375 -0.74375 0.44625 0 0 Z " fill="#47B123" transform="translate(1003,308)"/>
<path d="M0 0 C4.81622746 8.9554295 4.36675411 19.21403683 4.3125 29.125 C4.31067719 29.81220123 4.30885437 30.49940247 4.30697632 31.20742798 C4.23925479 46.34771168 2.64764231 59.18839365 -4 73 C-4.32613281 73.68320312 -4.65226563 74.36640625 -4.98828125 75.0703125 C-5.63653416 76.39139664 -6.31313569 77.69857288 -7 79 C-7.66 79 -8.32 79 -9 79 C-7.93240095 75.53030309 -6.67866511 72.2724836 -5.125 69 C0.99199306 55.3914087 2.05005734 42.22620968 2.1875 27.5625 C2.20731934 26.10360352 2.20731934 26.10360352 2.22753906 24.61523438 C2.22850586 23.69162109 2.22947266 22.76800781 2.23046875 21.81640625 C2.23457764 20.98568604 2.23868652 20.15496582 2.24291992 19.29907227 C1.97608332 16.77364485 1.23034613 15.20048851 0 13 C-1.38822686 8.45671209 -0.70451846 4.61850992 0 0 Z " fill="#40AF28" transform="translate(990,580)"/>
<path d="M0 0 C1.20662571 3.61987714 0.66360062 5.10465738 -0.3125 8.75 C-0.59222656 9.81863281 -0.87195313 10.88726562 -1.16015625 11.98828125 C-1.81171905 14.32481575 -2.510863 16.62833407 -3.25 18.9375 C-4.04724104 22.19290092 -3.73889439 23.79812433 -3 27 C-3.5 30 -3.5 30 -4 33 C-3.61487376 36.38911094 -3.43773135 37.56226865 -1 40 C-1.33 40.66 -1.66 41.32 -2 42 C-1.34 42.33 -0.68 42.66 0 43 C-0.66 43.99 -1.32 44.98 -2 46 C-1.01 46.33 -0.02 46.66 1 47 C1 47.66 1 48.32 1 49 C1.66 49 2.32 49 3 49 C3 48.34 3 47.68 3 47 C4.96147874 45.61061923 6.96166576 44.2739589 9 43 C7.61811547 46.21043882 6.07578097 48.04936365 3.375 50.25 C2.42753906 51.03117187 2.42753906 51.03117187 1.4609375 51.828125 C0.97882812 52.21484375 0.49671875 52.6015625 0 53 C-5.32671761 44.67420609 -6.27198394 35.94558623 -6.3125 26.25 C-6.31789795 25.45835449 -6.3232959 24.66670898 -6.32885742 23.85107422 C-6.24357981 16.75746011 -4.90832038 10.47108348 -1.875 4 C-1.34519531 2.8553125 -1.34519531 2.8553125 -0.8046875 1.6875 C-0.53914062 1.130625 -0.27359375 0.57375 0 0 Z " fill="#6CBE24" transform="translate(890,261)"/>
<path d="M0 0 C0.33 0.99 0.66 1.98 1 3 C-0.29486821 4.69672386 -1.63360658 6.3603279 -3 8 C-3.70447631 9.65104069 -4.37774395 11.31624835 -5 13 C-4.06800781 12.96519531 -3.13601563 12.93039062 -2.17578125 12.89453125 C5.7042921 12.72720917 12.52464728 13.23578093 20.1953125 15.34375 C22.91972813 15.98121772 25.21880932 16.03764725 28 16 C30.8125 17 30.8125 17 33 18 C33 18.33 33 18.66 33 19 C21.78 18.67 10.56 18.34 -1 18 C-1 17.67 -1 17.34 -1 17 C-3.31 16.67 -5.62 16.34 -8 16 C-6.25267359 9.73519555 -4.02879721 5.11766132 0 0 Z " fill="#539429" transform="translate(909,306)"/>
<path d="M0 0 C0.66 0.33 1.32 0.66 2 1 C1.51756836 1.29132813 1.03513672 1.58265625 0.53808594 1.8828125 C-8.25941768 7.20398444 -16.98236062 12.57324009 -25.49609375 18.33984375 C-28.58763625 20.38961842 -31.74473403 22.22440038 -35 24 C-35.66 22.68 -36.32 21.36 -37 20 C-25.53667572 13.20914472 -14.00067932 6.79129557 -2 1 C-1.34 0.67 -0.68 0.34 0 0 Z " fill="#1A2E14" transform="translate(979,247)"/>
<path d="M0 0 C-2.9826263 5.7266425 -6.62294157 10.26638344 -11 15 C-11.66 13.68 -12.32 12.36 -13 11 C-16.54518884 12.39759905 -16.54518884 12.39759905 -20 14 C-18.4114658 9.71095765 -15.56872632 7.67654474 -12 5 C-11.34 5 -10.68 5 -10 5 C-9.9175 4.38125 -9.835 3.7625 -9.75 3.125 C-9 1 -9 1 -7.25 -0.3125 C-4.48679971 -1.1568112 -2.75194864 -0.76443018 0 0 Z " fill="#8ADD2A" transform="translate(1021,465)"/>
<path d="M0 0 C0.99 0.33 1.98 0.66 3 1 C-11.93899069 19.26181766 -11.93899069 19.26181766 -20 23 C-19.505 21.515 -19.505 21.515 -19 20 C-18.34 20 -17.68 20 -17 20 C-16.71125 19.05125 -16.4225 18.1025 -16.125 17.125 C-15 14 -15 14 -13 12 C-12.01 11.67 -11.02 11.34 -10 11 C-9.67 10.01 -9.34 9.02 -9 8 C-7.68733482 6.64631404 -6.35432675 5.31200404 -5 4 C-4.67 3.34 -4.34 2.68 -4 2 C-2.68 2 -1.36 2 0 2 C0 1.34 0 0.68 0 0 Z " fill="#6CCA29" transform="translate(1020,292)"/>
<path d="M0 0 C3.92858919 -0.05012431 7.85704984 -0.08605502 11.78588867 -0.10986328 C13.76552896 -0.12464917 15.74508063 -0.15008592 17.72460938 -0.17578125 C25.38728011 -0.21457958 32.52587958 0.27107972 40 2 C40.495 3.485 40.495 3.485 41 5 C34.73 4.67 28.46 4.34 22 4 C21.67 3.34 21.34 2.68 21 2 C18.28553021 1.68758545 15.66090639 1.48663408 12.9375 1.375 C11.79958008 1.31699219 11.79958008 1.31699219 10.63867188 1.2578125 C8.75952805 1.16326438 6.87979664 1.08053244 5 1 C4.67 1.66 4.34 2.32 4 3 C2.68 2.34 1.36 1.68 0 1 C0 0.67 0 0.34 0 0 Z " fill="#D0F666" transform="translate(907,324)"/>
<path d="M0 0 C1.32 0.66 2.64 1.32 4 2 C-10.40452773 8.4056252 -26.23837353 11.26007583 -42 10 C-43.35157253 9.37113283 -44.68918597 8.70992169 -46 8 C-45.33468262 7.98018066 -44.66936523 7.96036133 -43.98388672 7.93994141 C-40.94721732 7.84423582 -37.91119322 7.73474192 -34.875 7.625 C-33.30492187 7.57859375 -33.30492187 7.57859375 -31.703125 7.53125 C-25.59980457 7.29947834 -20.53569162 6.76784581 -15 4 C-15 4.66 -15 5.32 -15 6 C-12.68456386 5.38454214 -10.37307804 4.75821964 -8.0625 4.125 C-7.40314453 3.95097656 -6.74378906 3.77695312 -6.06445312 3.59765625 C-4.358497 3.12523763 -2.67660739 2.56784972 -1 2 C-0.67 1.34 -0.34 0.68 0 0 Z " fill="#68C52C" transform="translate(920,709)"/>
<path d="M0 0 C7.20773928 1.58570264 13.54031293 3.39748221 20 7 C19.0022242 9.99332739 18.2477975 10.94766315 16 13 C15.34 12.67 14.68 12.34 14 12 C13.375 9.4375 13.375 9.4375 13 7 C11.68 7.99 10.36 8.98 9 10 C9.33 8.68 9.66 7.36 10 6 C8.35 6.66 6.7 7.32 5 8 C4.566875 7.175 4.13375 6.35 3.6875 5.5 C3.130625 4.675 2.57375 3.85 2 3 C1.01 3 0.02 3 -1 3 C-0.67 2.01 -0.34 1.02 0 0 Z M5 3 C5.66 3.66 6.32 4.32 7 5 C7 4.34 7 3.68 7 3 C6.34 3 5.68 3 5 3 Z " fill="#7ED525" transform="translate(647,537)"/>
<path d="M0 0 C3.41622347 0.29316103 4.76138978 0.76388831 7.23828125 3.21484375 C7.92277344 4.11332031 8.60726562 5.01179687 9.3125 5.9375 C10.00988281 6.83339844 10.70726562 7.72929688 11.42578125 8.65234375 C13 11 13 11 13 13 C11.68 13.33 10.36 13.66 9 14 C6 10.25 6 10.25 6 8 C5.01 7.67 4.02 7.34 3 7 C2.01 6.34 1.02 5.68 0 5 C-0.1875 2.375 -0.1875 2.375 0 0 Z " fill="#53BE23" transform="translate(958,530)"/>
<path d="M0 0 C5.39795989 1.15058556 10.70987333 2.42421759 16 4 C15.375 5.875 15.375 5.875 14 8 C10.875 9.25 10.875 9.25 8 10 C7.34 9.01 6.68 8.02 6 7 C3.41619823 6.74969023 3.41619823 6.74969023 1 7 C1 4 1 4 2 3 C2 2.34 2 1.68 2 1 C1.34 0.67 0.68 0.34 0 0 Z " fill="#7CD027" transform="translate(607,524)"/>
<path d="M0 0 C0.99 0.33 1.98 0.66 3 1 C2.98839844 1.64066406 2.97679687 2.28132813 2.96484375 2.94140625 C2.9112422 8.07949772 3.16960652 12.91383993 4 18 C4 20.6506582 3.63174297 22.47302813 3 25 C3 25.99 3 26.98 3 28 C2.68330179 30.33564933 2.35179197 32.6693782 2 35 C-0.39629455 31.40555817 -0.25781331 28.85138348 -0.1953125 24.70703125 C-0.1924826 24.00100266 -0.18965271 23.29497406 -0.18673706 22.56755066 C-0.17555464 20.31569367 -0.1504542 18.06423648 -0.125 15.8125 C-0.11496767 14.28451096 -0.10584226 12.75651567 -0.09765625 11.22851562 C-0.07562172 7.48552337 -0.04110567 3.74282944 0 0 Z " fill="#A2EA34" transform="translate(861,454)"/>
<path d="M0 0 C0.33 0.66 0.66 1.32 1 2 C0.525625 2.433125 0.05125 2.86625 -0.4375 3.3125 C-2.23686957 5.02309613 -2.23686957 5.02309613 -3 8 C-4.890625 9.38671875 -4.890625 9.38671875 -7.25 10.6875 C-8.40242187 11.34298828 -8.40242187 11.34298828 -9.578125 12.01171875 C-12.23695009 13.09669092 -14.15632325 13.18655326 -17 13 C-13.72913742 8.22999207 -9.90126201 5.82429157 -5 3 C-4.01 2.401875 -3.02 1.80375 -2 1.1875 C-1.34 0.795625 -0.68 0.40375 0 0 Z " fill="#55C024" transform="translate(1003,308)"/>
<path d="M0 0 C0.33 0.99 0.66 1.98 1 3 C-0.29486821 4.69672386 -1.63360658 6.3603279 -3 8 C-3.70447631 9.65104069 -4.37774395 11.31624835 -5 13 C-3.44539062 12.96519531 -3.44539062 12.96519531 -1.859375 12.9296875 C-0.48959056 12.91092333 0.8802017 12.89272382 2.25 12.875 C2.93191406 12.85824219 3.61382813 12.84148437 4.31640625 12.82421875 C8.38537077 12.78471424 10.24899321 13.12449661 14 15 C3.11 15.495 3.11 15.495 -8 16 C-5.50345691 8.51037073 -4.42925294 5.62634832 0 0 Z " fill="#36A01E" transform="translate(909,306)"/>
<path d="M0 0 C-2.91502685 1.79434505 -5.83230245 3.5850015 -8.75 5.375 C-9.575 5.88289062 -10.4 6.39078125 -11.25 6.9140625 C-12.04921875 7.40390625 -12.8484375 7.89375 -13.671875 8.3984375 C-14.4050293 8.84880371 -15.13818359 9.29916992 -15.89355469 9.76318359 C-17.89204216 10.93661168 -19.91477343 11.99035472 -22 13 C-22 12.34 -22 11.68 -22 11 C-22.66 10.67 -23.32 10.34 -24 10 C-21.2730819 8.53743341 -18.5430812 7.08071459 -15.8125 5.625 C-15.04357422 5.2125 -14.27464844 4.8 -13.48242188 4.375 C-2.71287032 -1.35643516 -2.71287032 -1.35643516 0 0 Z " fill="#233813" transform="translate(981,248)"/>
<path d="M0 0 C0.639375 0.165 1.27875 0.33 1.9375 0.5 C4.04582216 1.24598544 4.04582216 1.24598544 6 0 C7.66666667 1.66666667 9.33333333 3.33333333 11 5 C10.34 5 9.68 5 9 5 C9 5.66 9 6.32 9 7 C10.98 7.66 12.96 8.32 15 9 C12 10 12 10 9.37109375 8.890625 C8.40300781 8.34921875 7.43492187 7.8078125 6.4375 7.25 C5.46683594 6.71890625 4.49617187 6.1878125 3.49609375 5.640625 C1 4 1 4 -1 1 C-0.67 0.67 -0.34 0.34 0 0 Z " fill="#7AD22D" transform="translate(820,696)"/>
<path d="M0 0 C2.475 0.99 2.475 0.99 5 2 C2.04732794 5.23387892 -0.87922748 7.22245249 -4.75 9.25 C-5.73484375 9.77078125 -6.7196875 10.2915625 -7.734375 10.828125 C-8.85585938 11.40820312 -8.85585938 11.40820312 -10 12 C-9.67 10.02 -9.34 8.04 -9 6 C-5.846632 5.29925156 -3.27275026 5 0 5 C0 3.35 0 1.7 0 0 Z " fill="#85D62A" transform="translate(716,674)"/>
<path d="M0 0 C0.33 1.65 0.66 3.3 1 5 C0.34 5 -0.32 5 -1 5 C-1.33 6.32 -1.66 7.64 -2 9 C-2.66 8.67 -3.32 8.34 -4 8 C-3.67 6.68 -3.34 5.36 -3 4 C-4.65 4 -6.3 4 -8 4 C-7.67 2.68 -7.34 1.36 -7 0 C-3.98968256 -0.93423645 -3.13349732 -1.04449911 0 0 Z M-9 4 C-8.34 4.66 -7.68 5.32 -7 6 C-8.98 6.99 -8.98 6.99 -11 8 C-11 7.34 -11 6.68 -11 6 C-10.34 6 -9.68 6 -9 6 C-9 5.34 -9 4.68 -9 4 Z " fill="#54C122" transform="translate(914,520)"/>
<path d="M0 0 C0.66 0.33 1.32 0.66 2 1 C-3.61 6.61 -9.22 12.22 -15 18 C-15.66 17.67 -16.32 17.34 -17 17 C-11.83794309 10.72690435 -6.12627407 5.3250511 0 0 Z " fill="#BCE346" transform="translate(538,344)"/>
<path d="M0 0 C0.33 0.99 0.66 1.98 1 3 C-0.54766646 5.16673305 -2.11689016 7.11689016 -4 9 C-3.34 9.66 -2.68 10.32 -2 11 C-2 11.66 -2 12.32 -2 13 C-2.66 13 -3.32 13 -4 13 C-4 13.66 -4 14.32 -4 15 C-4.66 15 -5.32 15 -6 15 C-6.33 14.01 -6.66 13.02 -7 12 C-8.32 12.33 -9.64 12.66 -11 13 C-10.34 12.67 -9.68 12.34 -9 12 C-8.70351563 11.40703125 -8.40703125 10.8140625 -8.1015625 10.203125 C-6.83393584 7.66787169 -5.26836275 5.85373639 -3.375 3.75 C-2.74335937 3.04359375 -2.11171875 2.3371875 -1.4609375 1.609375 C-0.97882812 1.07828125 -0.49671875 0.5471875 0 0 Z " fill="#94DC31" transform="translate(843,526)"/>
<path d="M0 0 C1.32 1.32 2.64 2.64 4 4 C4.99 3.67 5.98 3.34 7 3 C7.25 5.8125 7.25 5.8125 7 9 C5 10.875 5 10.875 3 12 C0.53226147 8.35203869 -0.60004679 5.39948529 -1 1 C-0.67 0.67 -0.34 0.34 0 0 Z " fill="#48BD23" transform="translate(956,665)"/>
<path d="M0 0 C4.37705845 8.09204084 4.27797614 17.01210482 4 26 C3.34 26 2.68 26 2 26 C2.03480469 25.09507812 2.03480469 25.09507812 2.0703125 24.171875 C2.08835937 23.37265625 2.10640625 22.5734375 2.125 21.75 C2.14820313 20.96109375 2.17140625 20.1721875 2.1953125 19.359375 C1.98089933 16.76926391 1.26145953 15.24682604 0 13 C-1.38822686 8.45671209 -0.70451846 4.61850992 0 0 Z " fill="#3BA625" transform="translate(990,580)"/>
<path d="M0 0 C2.5625 2.375 2.5625 2.375 5 5 C6.31122758 5.70915757 7.64182617 6.38551966 9 7 C2.37822074 6.69343615 -2.22125154 5.25711277 -8 2 C-4.72942857 -0.18038095 -3.79480531 -0.63246755 0 0 Z " fill="#76CF2E" transform="translate(845,706)"/>
<path d="M0 0 C1.32 0.33 2.64 0.66 4 1 C3.01 2.485 3.01 2.485 2 4 C2.99 4.33 3.98 4.66 5 5 C5 5.66 5 6.32 5 7 C5.66 7 6.32 7 7 7 C7 6.34 7 5.68 7 5 C8.96147874 3.61061923 10.96166576 2.2739589 13 1 C11.61811547 4.21043882 10.07578097 6.04936365 7.375 8.25 C6.74335937 8.77078125 6.11171875 9.2915625 5.4609375 9.828125 C4.97882812 10.21484375 4.49671875 10.6015625 4 11 C1.52214277 7.33708062 0.51035831 4.3890815 0 0 Z " fill="#40A11D" transform="translate(886,303)"/>
<path d="M0 0 C1.65 0.33 3.3 0.66 5 1 C5 1.99 5 2.98 5 4 C2.75 5.8125 2.75 5.8125 0 7 C-2.3125 6.1875 -2.3125 6.1875 -4 5 C-2.68 3.35 -1.36 1.7 0 0 Z " fill="#80C927" transform="translate(595,520)"/>
<path d="M0 0 C1.98 0 3.96 0 6 0 C5.01 1.485 5.01 1.485 4 3 C3.29187186 5.32108669 2.61975848 7.65377147 2 10 C0.62437146 8.71034824 -0.70766393 7.37310707 -2 6 C-2 5.34 -2 4.68 -2 4 C-1.34 4 -0.68 4 0 4 C0 2.68 0 1.36 0 0 Z " fill="#6BCA23" transform="translate(997,481)"/>
<path d="M0 0 C1.64630328 0.14042877 3.29204179 0.28749329 4.9375 0.4375 C6.31228516 0.55931641 6.31228516 0.55931641 7.71484375 0.68359375 C10 1 10 1 11 2 C11.04092937 4.33297433 11.04241723 6.66705225 11 9 C10.278125 9.12375 9.55625 9.2475 8.8125 9.375 C6.04278106 9.9904931 3.6029646 10.88444374 1 12 C3.5162178 9.39391727 6.05134359 7.10618315 9 5 C8.20700294 2.82961523 8.20700294 2.82961523 6.15234375 2.3671875 C5.05599609 2.12355469 5.05599609 2.12355469 3.9375 1.875 C3.20402344 1.70742187 2.47054688 1.53984375 1.71484375 1.3671875 C1.14894531 1.24601563 0.58304688 1.12484375 0 1 C0 0.67 0 0.34 0 0 Z " fill="#CCEC62" transform="translate(1033,211)"/>
<path d="M0 0 C3.3 0.99 6.6 1.98 10 3 C10 3.66 10 4.32 10 5 C7.35261084 6.4606285 6.10551666 7 3 7 C3 6.34 3 5.68 3 5 C2.34 5 1.68 5 1 5 C0.67 3.35 0.34 1.7 0 0 Z " fill="#7DD127" transform="translate(636,533)"/>
<path d="M0 0 C0.99 0.33 1.98 0.66 3 1 C2.1875 2.9375 2.1875 2.9375 1 5 C0.01 5.33 -0.98 5.66 -2 6 C-2 6.66 -2 7.32 -2 8 C-3.53125 9.2890625 -3.53125 9.2890625 -5.5 10.625 C-6.1496875 11.07101562 -6.799375 11.51703125 -7.46875 11.9765625 C-7.9740625 12.31429687 -8.479375 12.65203125 -9 13 C-9.66 12.67 -10.32 12.34 -11 12 C-9.91666667 10.91666667 -8.83333333 9.83333333 -7.75 8.75 C-7.11449219 8.11320313 -6.47898437 7.47640625 -5.82421875 6.8203125 C-4.41316013 5.41227542 -2.99023409 4.01612552 -1.5625 2.625 C0.11551812 1.25558384 0.11551812 1.25558384 0 0 Z " fill="#7EBA2E" transform="translate(586,516)"/>
<path d="M0 0 C0 3 0 3 -1.19335938 4.53393555 C-1.73798828 5.062854 -2.28261719 5.59177246 -2.84375 6.13671875 C-3.72353516 7.00200195 -3.72353516 7.00200195 -4.62109375 7.88476562 C-5.24113281 8.47966797 -5.86117187 9.07457031 -6.5 9.6875 C-7.12003906 10.29400391 -7.74007812 10.90050781 -8.37890625 11.52539062 C-9.91264707 13.02373743 -11.45548198 14.51276493 -13 16 C-13.66 15.67 -14.32 15.34 -15 15 C-10.3143947 9.52331848 -5.59753384 4.54799625 0 0 Z " fill="#1A3011" transform="translate(710,396)"/>
<path d="M0 0 C-2.97 0.66 -5.94 1.32 -9 2 C-9 2.99 -9 3.98 -9 5 C-12.3 4.01 -15.6 3.02 -19 2 C-19 1.67 -19 1.34 -19 1 C-16.58440932 0.63645961 -14.16805703 0.28389449 -11.75 -0.0625 C-11.06808594 -0.16626953 -10.38617187 -0.27003906 -9.68359375 -0.37695312 C-5.98999789 -0.89692536 -3.68402549 -0.92100637 0 0 Z " fill="#204116" transform="translate(977,327)"/>
<path d="M0 0 C0.33 0.99 0.66 1.98 1 3 C-2.63 6.63 -6.26 10.26 -10 14 C-10.66 13.67 -11.32 13.34 -12 13 C-10.18777319 11.02058257 -8.37523172 9.04145495 -6.5625 7.0625 C-6.04623047 6.49853516 -5.52996094 5.93457031 -4.99804688 5.35351562 C-1.11328125 1.11328125 -1.11328125 1.11328125 0 0 Z " fill="#4DAB20" transform="translate(929,283)"/>
<path d="M0 0 C1.9375 0.3125 1.9375 0.3125 4 1 C4.33 1.99 4.66 2.98 5 4 C6.76125389 5.7469369 6.76125389 5.7469369 8.875 7.4375 C11.68861414 9.75795299 13.90741794 12.00589673 16 15 C11.91633665 13.33481689 8.93962215 10.45307123 5.75 7.5 C5.19570313 7.00113281 4.64140625 6.50226562 4.0703125 5.98828125 C2.6714992 4.7031646 1.33055746 3.35566232 0 2 C0 1.34 0 0.68 0 0 Z " fill="#7FC832" transform="translate(793,675)"/>
<path d="M0 0 C-0.34485543 2.8842454 -0.78255407 3.8207818 -3.06640625 5.703125 C-3.89011719 6.21359375 -4.71382812 6.7240625 -5.5625 7.25 C-6.38878906 7.77078125 -7.21507812 8.2915625 -8.06640625 8.828125 C-9.02353516 9.40820312 -9.02353516 9.40820312 -10 10 C-9.67 9.01 -9.34 8.02 -9 7 C-8.34 7 -7.68 7 -7 7 C-6.71125 6.030625 -6.4225 5.06125 -6.125 4.0625 C-4.66280494 0.08208012 -4.16327974 0 0 0 Z " fill="#61C32A" transform="translate(1010,305)"/>
<path d="M0 0 C0.66 0.33 1.32 0.66 2 1 C-2.95 5.95 -7.9 10.9 -13 16 C-13 11.92412524 -11.74008328 11.01409161 -9 8 C-6.38537946 5.60368758 -3.70031809 3.29866895 -1 1 C-0.67 0.67 -0.34 0.34 0 0 Z " fill="#5BAB25" transform="translate(913,288)"/>
<path d="M0 0 C0.99 0.33 1.98 0.66 3 1 C-0.3 3.97 -3.6 6.94 -7 10 C-7.33 8.68 -7.66 7.36 -8 6 C-5.38485683 3.87961365 -2.80362384 1.86908256 0 0 Z " fill="#7DCB27" transform="translate(736,661)"/>
<path d="M0 0 C0.99 0.33 1.98 0.66 3 1 C2.67 8.26 2.34 15.52 2 23 C1.67 23 1.34 23 1 23 C0.67 15.41 0.34 7.82 0 0 Z " fill="#8BCE30" transform="translate(861,454)"/>
<path d="M0 0 C0.99 0.66 1.98 1.32 3 2 C0.36 4.97 -2.28 7.94 -5 11 C-6.2077558 7.37673261 -5.54311128 6.35853631 -4 3 C-3.01 3 -2.02 3 -1 3 C-0.67 2.01 -0.34 1.02 0 0 Z " fill="#49B425" transform="translate(966,678)"/>
<path d="M0 0 C1.32 0.33 2.64 0.66 4 1 C2.03681826 4.53372712 -0.04070881 7.24479785 -3 10 C-2.25 3.375 -2.25 3.375 0 0 Z " fill="#88D629" transform="translate(757,635)"/>
<path d="M0 0 C4 4.75 4 4.75 4 7 C3.01 7.33 2.02 7.66 1 8 C1 7.34 1 6.68 1 6 C-0.98 6.33 -2.96 6.66 -5 7 C-4.0409375 6.1028125 -4.0409375 6.1028125 -3.0625 5.1875 C-0.79689611 3.09189663 -0.79689611 3.09189663 0 0 Z " fill="#47B524" transform="translate(978,553)"/>
<path d="M0 0 C-0.99 0.680625 -0.99 0.680625 -2 1.375 C-2.99 2.179375 -2.99 2.179375 -4 3 C-4 3.66 -4 4.32 -4 5 C-5.32 5.33 -6.64 5.66 -8 6 C-8.66 4.68 -9.32 3.36 -10 2 C-8.71211992 1.46987262 -7.41953322 0.9511671 -6.125 0.4375 C-5.40570312 0.14746094 -4.68640625 -0.14257812 -3.9453125 -0.44140625 C-2 -1 -2 -1 0 0 Z " fill="#6ACC25" transform="translate(949,506)"/>
<path d="M0 0 C0.33 0.66 0.66 1.32 1 2 C3.01669827 3.13350534 3.01669827 3.13350534 5 4 C5 4.99 5 5.98 5 7 C1.08597051 5.73058503 -0.79072873 4.48832306 -3 1 C-2.01 0.67 -1.02 0.34 0 0 Z " fill="#86D434" transform="translate(812,689)"/>
<path d="M0 0 C-1.95585325 1.00484204 -3.91476237 2.00373805 -5.875 3 C-6.96554687 3.556875 -8.05609375 4.11375 -9.1796875 4.6875 C-12 6 -12 6 -14 6 C-13.3125 4.0625 -13.3125 4.0625 -12 2 C-9.625 1.375 -9.625 1.375 -7 1 C-6.29875 0.62875 -5.5975 0.2575 -4.875 -0.125 C-3 -1 -3 -1 0 0 Z " fill="#95E62B" transform="translate(975,494)"/>
<path d="M0 0 C0.33 0 0.66 0 1 0 C1 14 1 14 -1 17 C-1.18451025 5.47835991 -1.18451025 5.47835991 0 0 Z " fill="#6AB62A" transform="translate(885,272)"/>
<path d="M0 0 C1.65 1.32 3.3 2.64 5 4 C4.625 5.9375 4.625 5.9375 4 8 C3.01 8.495 3.01 8.495 2 9 C1.814375 7.824375 1.814375 7.824375 1.625 6.625 C1.20882007 3.85942178 1.20882007 3.85942178 -1 2 C-0.67 1.34 -0.34 0.68 0 0 Z " fill="#3AB31F" transform="translate(966,543)"/>
<path d="M0 0 C0.66 0 1.32 0 2 0 C1.71905418 1.8141927 1.42493567 3.62635001 1.125 5.4375 C0.88136719 6.95150391 0.88136719 6.95150391 0.6328125 8.49609375 C0.42398437 9.32238281 0.21515625 10.14867187 0 11 C-0.99 11.495 -0.99 11.495 -2 12 C-1.85904936 10.3745692 -1.71207913 8.74965949 -1.5625 7.125 C-1.48128906 6.22007812 -1.40007812 5.31515625 -1.31640625 4.3828125 C-1 2 -1 2 0 0 Z " fill="#A2DB2C" transform="translate(1040,246)"/>
<path d="M0 0 C1.32 0 2.64 0 4 0 C4.33 1.32 4.66 2.64 5 4 C4.34 4 3.68 4 3 4 C2.67 4.66 2.34 5.32 2 6 C0 5 0 5 -0.6875 3 C-0.790625 2.34 -0.89375 1.68 -1 1 C-0.67 0.67 -0.34 0.34 0 0 Z " fill="#60C820" transform="translate(977,493)"/>
<path d="M0 0 C0.99 0.33 1.98 0.66 3 1 C2.38461538 6.53846154 2.38461538 6.53846154 0.4375 8.875 C-0.036875 9.24625 -0.51125 9.6175 -1 10 C-2.31223496 6.06329512 -1.24296256 3.87511856 0 0 Z " fill="#93D52F" transform="translate(859,491)"/>
<path d="M0 0 C1.32 1.65 2.64 3.3 4 5 C2.625 7 2.625 7 1 9 C0.34 9 -0.32 9 -1 9 C-0.814375 8.4225 -0.62875 7.845 -0.4375 7.25 C0.04182379 4.78490621 -0.34273163 3.38259782 -1 1 C-0.67 0.67 -0.34 0.34 0 0 Z " fill="#41B824" transform="translate(958,556)"/>
<path d="M0 0 C0.66 0.99 1.32 1.98 2 3 C0.68799596 4.35432675 -0.64631404 5.68733482 -2 7 C-2.33 7 -2.66 7 -3 7 C-3 5.02 -3 3.04 -3 1 C-2.01 0.67 -1.02 0.34 0 0 Z " fill="#8DE328" transform="translate(690,560)"/>
<path d="M0 0 C1.32 0.33 2.64 0.66 4 1 C4 1.66 4 2.32 4 3 C2.37373596 4.38232443 0.7074998 5.71937515 -1 7 C-1.66 6.34 -2.32 5.68 -3 5 C-2.01 3.35 -1.02 1.7 0 0 Z " fill="#43B724" transform="translate(973,636)"/>
<path d="M0 0 C0.33 0.99 0.66 1.98 1 3 C-1.97 2.67 -4.94 2.34 -8 2 C-4.77208445 -0.1519437 -3.71599191 -0.20086443 0 0 Z " fill="#C5F25B" transform="translate(947,326)"/>
<path d="M0 0 C0.99 0.33 1.98 0.66 3 1 C2.67 1.66 2.34 2.32 2 3 C2.33 3.99 2.66 4.98 3 6 C1.0625 5.6875 1.0625 5.6875 -1 5 C-1.33 4.01 -1.66 3.02 -2 2 C-1.34 1.34 -0.68 0.68 0 0 Z " fill="#99E72A" transform="translate(658,698)"/>
<path d="M0 0 C0.33 0.99 0.66 1.98 1 3 C-1.31 4.98 -3.62 6.96 -6 9 C-4.25618453 5.51236907 -2.47193291 2.96631949 0 0 Z " fill="#3CA020" transform="translate(916,297)"/>
<path d="M0 0 C0.66 0.33 1.32 0.66 2 1 C-0.97 2.65 -3.94 4.3 -7 6 C-7.66 5.34 -8.32 4.68 -9 4 C-7.54618103 3.30300448 -6.08677047 2.61766134 -4.625 1.9375 C-3.40683594 1.36322266 -3.40683594 1.36322266 -2.1640625 0.77734375 C-1.44992187 0.52082031 -0.73578125 0.26429688 0 0 Z " fill="#395312" transform="translate(979,247)"/>
<path d="M0 0 C0.99 0 1.98 0 3 0 C3 0.99 3 1.98 3 3 C3.99 3.33 4.98 3.66 6 4 C5.01 4.33 4.02 4.66 3 5 C1.68 3.68 0.36 2.36 -1 1 C-0.67 0.67 -0.34 0.34 0 0 Z " fill="#83D631" transform="translate(820,696)"/>
<path d="M0 0 C2.0625 0.4375 2.0625 0.4375 4 1 C2.25 5.875 2.25 5.875 0 7 C-0.38133299 5.0085944 -0.71325582 3.00720923 -1 1 C-0.67 0.67 -0.34 0.34 0 0 Z " fill="#68D026" transform="translate(890,526)"/>
<path d="M0 0 C0 0.33 0 0.66 0 1 C-4.29 0.67 -8.58 0.34 -13 0 C-13 -0.33 -13 -0.66 -13 -1 C-8.05632546 -2.20577428 -4.79137588 -1.6290678 0 0 Z " fill="#40A01B" transform="translate(942,324)"/>
</svg>
